# xmcd CD database file
#
# Track frame offsets:
#	150
#	31049
#	54289
#	83376
#	108828
#	136998
#	169736
#	192791
#	209008
#
# Disc length: 3709 seconds
#
# Revision: 0
# Processed by: cddbd v1.5.2PL0 Copyright (c) Steve Scherf et al.
# Submitted via: CDex 1.51
#
DISCID=680e7b09
DTITLE=Mahavishnu Orchestra - The Inner Mounting Flame
DYEAR=1900
DGENRE=Jazz
TTITLE0=Meeting of The Spirits
TTITLE1=Dawn
TTITLE2=Noonward Race
TTITLE3=A Lotus On Irish Streams
TTITLE4=Vital Transformation
TTITLE5=The Dance of Maya
TTITLE6=You Know You Know
TTITLE7=Awakening
TTITLE8=Noonward Race [Live]
EXTD=
EXTT0=
EXTT1=
EXTT2=
EXTT3=
EXTT4=
EXTT5=
EXTT6=
EXTT7=
EXTT8=
PLAYORDER=
